<svg width="908" height="489" viewBox="0 0 908 489" fill="none" xmlns="http://www.w3.org/2000/svg">
<rect opacity="0.25" width="908" height="480" rx="12" fill="white"/>
<g filter="url(#filter0_bi)">
<rect width="908" height="480" rx="12" fill="#F0F8FF" fill-opacity="0.1"/>
<rect x="1.5" y="1.5" width="905" height="477" rx="10.5" stroke="#F0F8FF" stroke-opacity="0.42" stroke-width="3"/>
</g>
<rect x="286" y="348.001" width="65" height="20" fill="#7B93AC" fill-opacity="0.42"/>
<rect x="557" y="297.001" width="120" height="20" transform="rotate(30 557 297.001)" fill="#7B93AC" fill-opacity="0.42"/>
<rect x="547" y="191.001" width="120" height="20" transform="rotate(-30 547 191.001)" fill="#7B93AC" fill-opacity="0.42"/>
<rect x="190" y="302.001" width="20" height="40" fill="#7B93AC" fill-opacity="0.42"/>
<g filter="url(#filter1_d)">
<rect x="628" y="264.001" width="180" height="180" rx="20" fill="white"/>
</g>
<path d="M676.168 383.626L679.719 375.938H683.562L677.961 386.813V393.001H674.387V386.813L668.785 375.938H672.641L676.168 383.626ZM683.598 386.544C683.598 385.286 683.84 384.165 684.324 383.181C684.809 382.196 685.504 381.435 686.41 380.896C687.324 380.356 688.383 380.087 689.586 380.087C691.297 380.087 692.691 380.61 693.77 381.657C694.855 382.704 695.461 384.126 695.586 385.923L695.609 386.79C695.609 388.735 695.066 390.298 693.98 391.478C692.895 392.649 691.438 393.235 689.609 393.235C687.781 393.235 686.32 392.649 685.227 391.478C684.141 390.306 683.598 388.712 683.598 386.696V386.544ZM686.984 386.79C686.984 387.993 687.211 388.915 687.664 389.556C688.117 390.188 688.766 390.505 689.609 390.505C690.43 390.505 691.07 390.192 691.531 389.567C691.992 388.935 692.223 387.927 692.223 386.544C692.223 385.364 691.992 384.45 691.531 383.802C691.07 383.153 690.422 382.829 689.586 382.829C688.758 382.829 688.117 383.153 687.664 383.802C687.211 384.442 686.984 385.438 686.984 386.79ZM705.289 391.712C704.453 392.728 703.297 393.235 701.82 393.235C700.461 393.235 699.422 392.845 698.703 392.063C697.992 391.282 697.629 390.138 697.613 388.63V380.321H701V388.513C701 389.833 701.602 390.493 702.805 390.493C703.953 390.493 704.742 390.095 705.172 389.298V380.321H708.57V393.001H705.383L705.289 391.712ZM718.25 383.497C717.789 383.435 717.383 383.403 717.031 383.403C715.75 383.403 714.91 383.837 714.512 384.704V393.001H711.125V380.321H714.324L714.418 381.833C715.098 380.669 716.039 380.087 717.242 380.087C717.617 380.087 717.969 380.138 718.297 380.239L718.25 383.497ZM725.34 386.544C725.34 385.286 725.582 384.165 726.066 383.181C726.551 382.196 727.246 381.435 728.152 380.896C729.066 380.356 730.125 380.087 731.328 380.087C733.039 380.087 734.434 380.61 735.512 381.657C736.598 382.704 737.203 384.126 737.328 385.923L737.352 386.79C737.352 388.735 736.809 390.298 735.723 391.478C734.637 392.649 733.18 393.235 731.352 393.235C729.523 393.235 728.062 392.649 726.969 391.478C725.883 390.306 725.34 388.712 725.34 386.696V386.544ZM728.727 386.79C728.727 387.993 728.953 388.915 729.406 389.556C729.859 390.188 730.508 390.505 731.352 390.505C732.172 390.505 732.812 390.192 733.273 389.567C733.734 388.935 733.965 387.927 733.965 386.544C733.965 385.364 733.734 384.45 733.273 383.802C732.812 383.153 732.164 382.829 731.328 382.829C730.5 382.829 729.859 383.153 729.406 383.802C728.953 384.442 728.727 385.438 728.727 386.79ZM750.465 388.396L752.129 380.321H755.398L752.164 393.001H749.328L746.926 385.021L744.523 393.001H741.699L738.465 380.321H741.734L743.387 388.384L745.707 380.321H748.156L750.465 388.396ZM760.203 380.321L760.309 381.786C761.215 380.653 762.43 380.087 763.953 380.087C765.297 380.087 766.297 380.481 766.953 381.271C767.609 382.06 767.945 383.239 767.961 384.81V393.001H764.574V384.892C764.574 384.173 764.418 383.653 764.105 383.333C763.793 383.005 763.273 382.841 762.547 382.841C761.594 382.841 760.879 383.247 760.402 384.06V393.001H757.016V380.321H760.203ZM690.324 416.524C690.324 415.86 690.09 415.353 689.621 415.001C689.152 414.642 688.309 414.267 687.09 413.876C685.871 413.478 684.906 413.087 684.195 412.704C682.258 411.657 681.289 410.247 681.289 408.474C681.289 407.552 681.547 406.731 682.062 406.013C682.586 405.286 683.332 404.72 684.301 404.313C685.277 403.907 686.371 403.704 687.582 403.704C688.801 403.704 689.887 403.927 690.84 404.372C691.793 404.81 692.531 405.431 693.055 406.235C693.586 407.04 693.852 407.954 693.852 408.978H690.336C690.336 408.196 690.09 407.591 689.598 407.161C689.105 406.724 688.414 406.505 687.523 406.505C686.664 406.505 685.996 406.688 685.52 407.056C685.043 407.415 684.805 407.892 684.805 408.485C684.805 409.04 685.082 409.505 685.637 409.88C686.199 410.255 687.023 410.606 688.109 410.935C690.109 411.536 691.566 412.282 692.48 413.173C693.395 414.063 693.852 415.173 693.852 416.501C693.852 417.978 693.293 419.138 692.176 419.981C691.059 420.817 689.555 421.235 687.664 421.235C686.352 421.235 685.156 420.997 684.078 420.521C683 420.036 682.176 419.376 681.605 418.54C681.043 417.704 680.762 416.735 680.762 415.634H684.289C684.289 417.517 685.414 418.458 687.664 418.458C688.5 418.458 689.152 418.29 689.621 417.954C690.09 417.61 690.324 417.134 690.324 416.524ZM700.074 405.204V408.321H702.242V410.806H700.074V417.134C700.074 417.603 700.164 417.938 700.344 418.142C700.523 418.345 700.867 418.446 701.375 418.446C701.75 418.446 702.082 418.419 702.371 418.364V420.931C701.707 421.134 701.023 421.235 700.32 421.235C697.945 421.235 696.734 420.036 696.688 417.638V410.806H694.836V408.321H696.688V405.204H700.074ZM703.25 414.544C703.25 413.286 703.492 412.165 703.977 411.181C704.461 410.196 705.156 409.435 706.062 408.896C706.977 408.356 708.035 408.087 709.238 408.087C710.949 408.087 712.344 408.61 713.422 409.657C714.508 410.704 715.113 412.126 715.238 413.923L715.262 414.79C715.262 416.735 714.719 418.298 713.633 419.478C712.547 420.649 711.09 421.235 709.262 421.235C707.434 421.235 705.973 420.649 704.879 419.478C703.793 418.306 703.25 416.712 703.25 414.696V414.544ZM706.637 414.79C706.637 415.993 706.863 416.915 707.316 417.556C707.77 418.188 708.418 418.505 709.262 418.505C710.082 418.505 710.723 418.192 711.184 417.567C711.645 416.935 711.875 415.927 711.875 414.544C711.875 413.364 711.645 412.45 711.184 411.802C710.723 411.153 710.074 410.829 709.238 410.829C708.41 410.829 707.77 411.153 707.316 411.802C706.863 412.442 706.637 413.438 706.637 414.79ZM724.473 411.497C724.012 411.435 723.605 411.403 723.254 411.403C721.973 411.403 721.133 411.837 720.734 412.704V421.001H717.348V408.321H720.547L720.641 409.833C721.32 408.669 722.262 408.087 723.465 408.087C723.84 408.087 724.191 408.138 724.52 408.239L724.473 411.497ZM733.109 421.001C732.953 420.696 732.84 420.317 732.77 419.864C731.949 420.778 730.883 421.235 729.57 421.235C728.328 421.235 727.297 420.876 726.477 420.157C725.664 419.438 725.258 418.532 725.258 417.438C725.258 416.095 725.754 415.063 726.746 414.345C727.746 413.626 729.188 413.263 731.07 413.255H732.629V412.528C732.629 411.942 732.477 411.474 732.172 411.122C731.875 410.771 731.402 410.595 730.754 410.595C730.184 410.595 729.734 410.731 729.406 411.005C729.086 411.278 728.926 411.653 728.926 412.13H725.539C725.539 411.396 725.766 410.716 726.219 410.091C726.672 409.466 727.312 408.978 728.141 408.626C728.969 408.267 729.898 408.087 730.93 408.087C732.492 408.087 733.73 408.481 734.645 409.271C735.566 410.052 736.027 411.153 736.027 412.575V418.071C736.035 419.274 736.203 420.185 736.531 420.802V421.001H733.109ZM730.309 418.646C730.809 418.646 731.27 418.536 731.691 418.317C732.113 418.091 732.426 417.79 732.629 417.415V415.235H731.363C729.668 415.235 728.766 415.821 728.656 416.993L728.645 417.192C728.645 417.614 728.793 417.962 729.09 418.235C729.387 418.509 729.793 418.646 730.309 418.646ZM738.137 414.567C738.137 412.622 738.598 411.056 739.52 409.868C740.449 408.681 741.699 408.087 743.27 408.087C744.66 408.087 745.742 408.563 746.516 409.517L746.656 408.321H749.727V420.579C749.727 421.688 749.473 422.653 748.965 423.474C748.465 424.294 747.758 424.919 746.844 425.349C745.93 425.778 744.859 425.993 743.633 425.993C742.703 425.993 741.797 425.806 740.914 425.431C740.031 425.063 739.363 424.587 738.91 424.001L740.41 421.938C741.254 422.884 742.277 423.356 743.48 423.356C744.379 423.356 745.078 423.114 745.578 422.63C746.078 422.153 746.328 421.474 746.328 420.591V419.911C745.547 420.794 744.52 421.235 743.246 421.235C741.723 421.235 740.488 420.642 739.543 419.454C738.605 418.259 738.137 416.677 738.137 414.708V414.567ZM741.523 414.813C741.523 415.962 741.754 416.864 742.215 417.521C742.676 418.169 743.309 418.493 744.113 418.493C745.145 418.493 745.883 418.106 746.328 417.333V412.001C745.875 411.228 745.145 410.841 744.137 410.841C743.324 410.841 742.684 411.173 742.215 411.837C741.754 412.501 741.523 413.493 741.523 414.813ZM758.176 421.235C756.316 421.235 754.801 420.665 753.629 419.524C752.465 418.384 751.883 416.864 751.883 414.966V414.638C751.883 413.364 752.129 412.228 752.621 411.228C753.113 410.22 753.809 409.446 754.707 408.907C755.613 408.36 756.645 408.087 757.801 408.087C759.535 408.087 760.898 408.634 761.891 409.728C762.891 410.821 763.391 412.372 763.391 414.38V415.763H755.316C755.426 416.591 755.754 417.255 756.301 417.755C756.855 418.255 757.555 418.505 758.398 418.505C759.703 418.505 760.723 418.032 761.457 417.087L763.121 418.95C762.613 419.669 761.926 420.231 761.059 420.638C760.191 421.036 759.23 421.235 758.176 421.235ZM757.789 410.829C757.117 410.829 756.57 411.056 756.148 411.509C755.734 411.962 755.469 412.61 755.352 413.454H760.062V413.185C760.047 412.435 759.844 411.856 759.453 411.45C759.062 411.036 758.508 410.829 757.789 410.829Z" fill="#343A40"/>
<g clip-path="url(#clip0)">
<path fill-rule="evenodd" clip-rule="evenodd" d="M698.75 312.251C698.75 311.785 698.953 311.138 699.737 310.326C700.532 309.496 701.809 308.632 703.587 307.848C707.146 306.283 712.239 305.251 718 305.251C723.764 305.251 728.857 306.283 732.41 307.848C734.194 308.632 735.469 309.493 736.263 310.322C737.047 311.138 737.25 311.785 737.25 312.251C737.25 312.716 737.047 313.364 736.263 314.176C735.469 315.005 734.191 315.87 732.413 316.654C728.854 318.218 723.761 319.251 718 319.251C712.236 319.251 707.143 318.218 703.59 316.654C701.806 315.87 700.532 315.009 699.737 314.179C698.953 313.364 698.75 312.716 698.75 312.251ZM693.5 312.251C693.5 310.06 694.522 308.173 695.95 306.686C697.371 305.209 699.296 304.001 701.477 303.042C705.838 301.121 711.683 300.001 718 300.001C724.317 300.001 730.163 301.121 734.527 303.042C736.704 304.001 738.629 305.212 740.05 306.682C741.478 308.173 742.5 310.06 742.5 312.251V343.751C742.5 345.942 741.478 347.828 740.05 349.316C738.629 350.793 736.704 352 734.523 352.959C730.166 354.881 724.321 356.001 718 356.001C711.683 356.001 705.838 354.881 701.477 352.959C699.296 352 697.371 350.789 695.95 349.319C694.522 347.828 693.5 345.942 693.5 343.751V312.251ZM698.75 328.001V320.035C699.594 320.56 700.51 321.036 701.477 321.459C705.838 323.381 711.683 324.501 718 324.501C724.317 324.501 730.163 323.381 734.527 321.459C735.49 321.036 736.407 320.56 737.25 320.035V328.001C737.25 328.466 737.047 329.114 736.263 329.926C735.469 330.755 734.191 331.62 732.413 332.404C728.854 333.968 723.761 335.001 718 335.001C712.236 335.001 707.143 333.968 703.59 332.404C701.806 331.62 700.532 330.759 699.737 329.929C698.953 329.114 698.75 328.466 698.75 328.001ZM698.75 335.788V343.751C698.75 344.216 698.953 344.864 699.737 345.676C700.532 346.505 701.809 347.37 703.587 348.154C707.143 349.718 712.236 350.751 718 350.751C723.764 350.751 728.857 349.718 732.41 348.154C734.194 347.37 735.469 346.509 736.263 345.679C737.047 344.864 737.25 344.216 737.25 343.751V335.788C736.407 336.313 735.49 336.786 734.527 337.209C730.163 339.131 724.317 340.251 718 340.251C711.683 340.251 705.838 339.131 701.477 337.209C700.535 336.8 699.624 336.326 698.75 335.788Z" fill="#343A40"/>
</g>
<g filter="url(#filter2_d)">
<rect x="628" y="36.001" width="180" height="180" rx="20" fill="white"/>
</g>
<path d="M676.754 157.317C676.621 159.153 675.941 160.599 674.715 161.653C673.496 162.708 671.887 163.235 669.887 163.235C667.699 163.235 665.977 162.501 664.719 161.032C663.469 159.556 662.844 157.532 662.844 154.962V153.919C662.844 152.278 663.133 150.833 663.711 149.583C664.289 148.333 665.113 147.376 666.184 146.712C667.262 146.04 668.512 145.704 669.934 145.704C671.902 145.704 673.488 146.231 674.691 147.286C675.895 148.341 676.59 149.821 676.777 151.728H673.262C673.176 150.626 672.867 149.829 672.336 149.337C671.812 148.837 671.012 148.587 669.934 148.587C668.762 148.587 667.883 149.009 667.297 149.853C666.719 150.688 666.422 151.989 666.406 153.755V155.044C666.406 156.888 666.684 158.235 667.238 159.087C667.801 159.938 668.684 160.364 669.887 160.364C670.973 160.364 671.781 160.118 672.312 159.626C672.852 159.126 673.16 158.356 673.238 157.317H676.754ZM682.414 163.001H679.016V145.001H682.414V163.001ZM684.688 156.544C684.688 155.286 684.93 154.165 685.414 153.181C685.898 152.196 686.594 151.435 687.5 150.896C688.414 150.356 689.473 150.087 690.676 150.087C692.387 150.087 693.781 150.61 694.859 151.657C695.945 152.704 696.551 154.126 696.676 155.923L696.699 156.79C696.699 158.735 696.156 160.298 695.07 161.478C693.984 162.649 692.527 163.235 690.699 163.235C688.871 163.235 687.41 162.649 686.316 161.478C685.23 160.306 684.688 158.712 684.688 156.696V156.544ZM688.074 156.79C688.074 157.993 688.301 158.915 688.754 159.556C689.207 160.188 689.855 160.505 690.699 160.505C691.52 160.505 692.16 160.192 692.621 159.567C693.082 158.935 693.312 157.927 693.312 156.544C693.312 155.364 693.082 154.45 692.621 153.802C692.16 153.153 691.512 152.829 690.676 152.829C689.848 152.829 689.207 153.153 688.754 153.802C688.301 154.442 688.074 155.438 688.074 156.79ZM706.379 161.712C705.543 162.728 704.387 163.235 702.91 163.235C701.551 163.235 700.512 162.845 699.793 162.063C699.082 161.282 698.719 160.138 698.703 158.63V150.321H702.09V158.513C702.09 159.833 702.691 160.493 703.895 160.493C705.043 160.493 705.832 160.095 706.262 159.298V150.321H709.66V163.001H706.473L706.379 161.712ZM711.688 156.567C711.688 154.591 712.129 153.017 713.012 151.845C713.902 150.673 715.117 150.087 716.656 150.087C717.891 150.087 718.91 150.548 719.715 151.47V145.001H723.113V163.001H720.055L719.891 161.653C719.047 162.708 717.961 163.235 716.633 163.235C715.141 163.235 713.941 162.649 713.035 161.478C712.137 160.298 711.688 158.661 711.688 156.567ZM715.074 156.813C715.074 158.001 715.281 158.911 715.695 159.544C716.109 160.177 716.711 160.493 717.5 160.493C718.547 160.493 719.285 160.052 719.715 159.169V154.165C719.293 153.282 718.562 152.841 717.523 152.841C715.891 152.841 715.074 154.165 715.074 156.813ZM737.164 156.778C737.164 158.81 736.73 160.396 735.863 161.536C734.996 162.669 733.785 163.235 732.23 163.235C730.855 163.235 729.758 162.708 728.938 161.653L728.785 163.001H725.738V145.001H729.125V151.458C729.906 150.544 730.934 150.087 732.207 150.087C733.754 150.087 734.965 150.657 735.84 151.798C736.723 152.931 737.164 154.528 737.164 156.591V156.778ZM733.777 156.532C733.777 155.251 733.574 154.317 733.168 153.731C732.762 153.138 732.156 152.841 731.352 152.841C730.273 152.841 729.531 153.282 729.125 154.165V159.169C729.539 160.06 730.289 160.505 731.375 160.505C732.469 160.505 733.188 159.966 733.531 158.888C733.695 158.372 733.777 157.587 733.777 156.532ZM746.609 163.001C746.453 162.696 746.34 162.317 746.27 161.864C745.449 162.778 744.383 163.235 743.07 163.235C741.828 163.235 740.797 162.876 739.977 162.157C739.164 161.438 738.758 160.532 738.758 159.438C738.758 158.095 739.254 157.063 740.246 156.345C741.246 155.626 742.688 155.263 744.57 155.255H746.129V154.528C746.129 153.942 745.977 153.474 745.672 153.122C745.375 152.771 744.902 152.595 744.254 152.595C743.684 152.595 743.234 152.731 742.906 153.005C742.586 153.278 742.426 153.653 742.426 154.13H739.039C739.039 153.396 739.266 152.716 739.719 152.091C740.172 151.466 740.812 150.978 741.641 150.626C742.469 150.267 743.398 150.087 744.43 150.087C745.992 150.087 747.23 150.481 748.145 151.271C749.066 152.052 749.527 153.153 749.527 154.575V160.071C749.535 161.274 749.703 162.185 750.031 162.802V163.001H746.609ZM743.809 160.646C744.309 160.646 744.77 160.536 745.191 160.317C745.613 160.091 745.926 159.79 746.129 159.415V157.235H744.863C743.168 157.235 742.266 157.821 742.156 158.993L742.145 159.192C742.145 159.614 742.293 159.962 742.59 160.235C742.887 160.509 743.293 160.646 743.809 160.646ZM757.402 160.505C758.027 160.505 758.535 160.333 758.926 159.989C759.316 159.646 759.52 159.188 759.535 158.618H762.711C762.703 159.478 762.469 160.267 762.008 160.985C761.547 161.696 760.914 162.251 760.109 162.649C759.312 163.04 758.43 163.235 757.461 163.235C755.648 163.235 754.219 162.661 753.172 161.513C752.125 160.356 751.602 158.763 751.602 156.731V156.509C751.602 154.556 752.121 152.997 753.16 151.833C754.199 150.669 755.625 150.087 757.438 150.087C759.023 150.087 760.293 150.54 761.246 151.446C762.207 152.345 762.695 153.544 762.711 155.044H759.535C759.52 154.388 759.316 153.856 758.926 153.45C758.535 153.036 758.02 152.829 757.379 152.829C756.59 152.829 755.992 153.118 755.586 153.696C755.188 154.267 754.988 155.196 754.988 156.485V156.837C754.988 158.142 755.188 159.079 755.586 159.649C755.984 160.22 756.59 160.505 757.402 160.505ZM769.25 157.915L768.031 159.134V163.001H764.645V145.001H768.031V154.974L768.688 154.13L771.934 150.321H776L771.418 155.606L776.398 163.001H772.508L769.25 157.915ZM687.336 186.524C687.336 185.86 687.102 185.353 686.633 185.001C686.164 184.642 685.32 184.267 684.102 183.876C682.883 183.478 681.918 183.087 681.207 182.704C679.27 181.657 678.301 180.247 678.301 178.474C678.301 177.552 678.559 176.731 679.074 176.013C679.598 175.286 680.344 174.72 681.312 174.313C682.289 173.907 683.383 173.704 684.594 173.704C685.812 173.704 686.898 173.927 687.852 174.372C688.805 174.81 689.543 175.431 690.066 176.235C690.598 177.04 690.863 177.954 690.863 178.978H687.348C687.348 178.196 687.102 177.591 686.609 177.161C686.117 176.724 685.426 176.505 684.535 176.505C683.676 176.505 683.008 176.688 682.531 177.056C682.055 177.415 681.816 177.892 681.816 178.485C681.816 179.04 682.094 179.505 682.648 179.88C683.211 180.255 684.035 180.606 685.121 180.935C687.121 181.536 688.578 182.282 689.492 183.173C690.406 184.063 690.863 185.173 690.863 186.501C690.863 187.978 690.305 189.138 689.188 189.981C688.07 190.817 686.566 191.235 684.676 191.235C683.363 191.235 682.168 190.997 681.09 190.521C680.012 190.036 679.188 189.376 678.617 188.54C678.055 187.704 677.773 186.735 677.773 185.634H681.301C681.301 187.517 682.426 188.458 684.676 188.458C685.512 188.458 686.164 188.29 686.633 187.954C687.102 187.61 687.336 187.134 687.336 186.524ZM697.086 175.204V178.321H699.254V180.806H697.086V187.134C697.086 187.603 697.176 187.938 697.355 188.142C697.535 188.345 697.879 188.446 698.387 188.446C698.762 188.446 699.094 188.419 699.383 188.364V190.931C698.719 191.134 698.035 191.235 697.332 191.235C694.957 191.235 693.746 190.036 693.699 187.638V180.806H691.848V178.321H693.699V175.204H697.086ZM700.262 184.544C700.262 183.286 700.504 182.165 700.988 181.181C701.473 180.196 702.168 179.435 703.074 178.896C703.988 178.356 705.047 178.087 706.25 178.087C707.961 178.087 709.355 178.61 710.434 179.657C711.52 180.704 712.125 182.126 712.25 183.923L712.273 184.79C712.273 186.735 711.73 188.298 710.645 189.478C709.559 190.649 708.102 191.235 706.273 191.235C704.445 191.235 702.984 190.649 701.891 189.478C700.805 188.306 700.262 186.712 700.262 184.696V184.544ZM703.648 184.79C703.648 185.993 703.875 186.915 704.328 187.556C704.781 188.188 705.43 188.505 706.273 188.505C707.094 188.505 707.734 188.192 708.195 187.567C708.656 186.935 708.887 185.927 708.887 184.544C708.887 183.364 708.656 182.45 708.195 181.802C707.734 181.153 707.086 180.829 706.25 180.829C705.422 180.829 704.781 181.153 704.328 181.802C703.875 182.442 703.648 183.438 703.648 184.79ZM721.484 181.497C721.023 181.435 720.617 181.403 720.266 181.403C718.984 181.403 718.145 181.837 717.746 182.704V191.001H714.359V178.321H717.559L717.652 179.833C718.332 178.669 719.273 178.087 720.477 178.087C720.852 178.087 721.203 178.138 721.531 178.239L721.484 181.497ZM730.121 191.001C729.965 190.696 729.852 190.317 729.781 189.864C728.961 190.778 727.895 191.235 726.582 191.235C725.34 191.235 724.309 190.876 723.488 190.157C722.676 189.438 722.27 188.532 722.27 187.438C722.27 186.095 722.766 185.063 723.758 184.345C724.758 183.626 726.199 183.263 728.082 183.255H729.641V182.528C729.641 181.942 729.488 181.474 729.184 181.122C728.887 180.771 728.414 180.595 727.766 180.595C727.195 180.595 726.746 180.731 726.418 181.005C726.098 181.278 725.938 181.653 725.938 182.13H722.551C722.551 181.396 722.777 180.716 723.23 180.091C723.684 179.466 724.324 178.978 725.152 178.626C725.98 178.267 726.91 178.087 727.941 178.087C729.504 178.087 730.742 178.481 731.656 179.271C732.578 180.052 733.039 181.153 733.039 182.575V188.071C733.047 189.274 733.215 190.185 733.543 190.802V191.001H730.121ZM727.32 188.646C727.82 188.646 728.281 188.536 728.703 188.317C729.125 188.091 729.438 187.79 729.641 187.415V185.235H728.375C726.68 185.235 725.777 185.821 725.668 186.993L725.656 187.192C725.656 187.614 725.805 187.962 726.102 188.235C726.398 188.509 726.805 188.646 727.32 188.646ZM735.148 184.567C735.148 182.622 735.609 181.056 736.531 179.868C737.461 178.681 738.711 178.087 740.281 178.087C741.672 178.087 742.754 178.563 743.527 179.517L743.668 178.321H746.738V190.579C746.738 191.688 746.484 192.653 745.977 193.474C745.477 194.294 744.77 194.919 743.855 195.349C742.941 195.778 741.871 195.993 740.645 195.993C739.715 195.993 738.809 195.806 737.926 195.431C737.043 195.063 736.375 194.587 735.922 194.001L737.422 191.938C738.266 192.884 739.289 193.356 740.492 193.356C741.391 193.356 742.09 193.114 742.59 192.63C743.09 192.153 743.34 191.474 743.34 190.591V189.911C742.559 190.794 741.531 191.235 740.258 191.235C738.734 191.235 737.5 190.642 736.555 189.454C735.617 188.259 735.148 186.677 735.148 184.708V184.567ZM738.535 184.813C738.535 185.962 738.766 186.864 739.227 187.521C739.688 188.169 740.32 188.493 741.125 188.493C742.156 188.493 742.895 188.106 743.34 187.333V182.001C742.887 181.228 742.156 180.841 741.148 180.841C740.336 180.841 739.695 181.173 739.227 181.837C738.766 182.501 738.535 183.493 738.535 184.813ZM755.188 191.235C753.328 191.235 751.812 190.665 750.641 189.524C749.477 188.384 748.895 186.864 748.895 184.966V184.638C748.895 183.364 749.141 182.228 749.633 181.228C750.125 180.22 750.82 179.446 751.719 178.907C752.625 178.36 753.656 178.087 754.812 178.087C756.547 178.087 757.91 178.634 758.902 179.728C759.902 180.821 760.402 182.372 760.402 184.38V185.763H752.328C752.438 186.591 752.766 187.255 753.312 187.755C753.867 188.255 754.566 188.505 755.41 188.505C756.715 188.505 757.734 188.032 758.469 187.087L760.133 188.95C759.625 189.669 758.938 190.231 758.07 190.638C757.203 191.036 756.242 191.235 755.188 191.235ZM754.801 180.829C754.129 180.829 753.582 181.056 753.16 181.509C752.746 181.962 752.48 182.61 752.363 183.454H757.074V183.185C757.059 182.435 756.855 181.856 756.465 181.45C756.074 181.036 755.52 180.829 754.801 180.829Z" fill="#343A40"/>
<g clip-path="url(#clip1)">
<path fill-rule="evenodd" clip-rule="evenodd" d="M698.75 82.251C698.75 81.7855 698.953 81.138 699.737 80.326C700.532 79.4965 701.809 78.632 703.587 77.848C707.146 76.2835 712.239 75.251 718 75.251C723.764 75.251 728.857 76.2835 732.41 77.848C734.194 78.632 735.469 79.493 736.263 80.3225C737.047 81.138 737.25 81.7855 737.25 82.251C737.25 82.7165 737.047 83.364 736.263 84.176C735.469 85.0055 734.191 85.87 732.413 86.654C728.854 88.2185 723.761 89.251 718 89.251C712.236 89.251 707.143 88.2185 703.59 86.654C701.806 85.87 700.532 85.009 699.737 84.1795C698.953 83.364 698.75 82.7165 698.75 82.251ZM693.5 82.251C693.5 80.06 694.522 78.1735 695.95 76.686C697.371 75.209 699.296 74.0015 701.477 73.0425C705.838 71.121 711.683 70.001 718 70.001C724.317 70.001 730.163 71.121 734.527 73.0425C736.704 74.0015 738.629 75.2125 740.05 76.6825C741.478 78.1735 742.5 80.06 742.5 82.251V113.751C742.5 115.942 741.478 117.828 740.05 119.316C738.629 120.793 736.704 122 734.523 122.959C730.166 124.881 724.321 126.001 718 126.001C711.683 126.001 705.838 124.881 701.477 122.959C699.296 122 697.371 120.789 695.95 119.319C694.522 117.828 693.5 115.942 693.5 113.751V82.251ZM698.75 98.001V90.035C699.594 90.56 700.51 91.036 701.477 91.4595C705.838 93.381 711.683 94.501 718 94.501C724.317 94.501 730.163 93.381 734.527 91.4595C735.49 91.036 736.407 90.56 737.25 90.035V98.001C737.25 98.4665 737.047 99.114 736.263 99.926C735.469 100.755 734.191 101.62 732.413 102.404C728.854 103.968 723.761 105.001 718 105.001C712.236 105.001 707.143 103.968 703.59 102.404C701.806 101.62 700.532 100.759 699.737 99.9295C698.953 99.114 698.75 98.4665 698.75 98.001ZM698.75 105.788V113.751C698.75 114.216 698.953 114.864 699.737 115.676C700.532 116.505 701.809 117.37 703.587 118.154C707.143 119.718 712.236 120.751 718 120.751C723.764 120.751 728.857 119.718 732.41 118.154C734.194 117.37 735.469 116.509 736.263 115.679C737.047 114.864 737.25 114.216 737.25 113.751V105.788C736.407 106.313 735.49 106.786 734.527 107.209C730.163 109.131 724.317 110.251 718 110.251C711.683 110.251 705.838 109.131 701.477 107.209C700.535 106.8 699.624 106.326 698.75 105.788Z" fill="#343A40"/>
</g>
<g filter="url(#filter3_d)">
<rect x="332" y="112.002" width="236.056" height="275" rx="20" fill="white"/>
</g>
<path d="M429.679 190.466C435.238 190.466 439.744 185.909 439.744 180.287C439.744 174.665 435.238 170.108 429.679 170.108C424.12 170.108 419.614 174.665 419.614 180.287C419.614 185.909 424.12 190.466 429.679 190.466Z" fill="#343A40"/>
<path d="M429.679 231.183C435.238 231.183 439.744 226.626 439.744 221.004C439.744 215.382 435.238 210.825 429.679 210.825C424.12 210.825 419.614 215.382 419.614 221.004C419.614 226.626 424.12 231.183 429.679 231.183Z" fill="#343A40"/>
<path d="M469.939 231.183C475.498 231.183 480.004 226.626 480.004 221.004C480.004 215.382 475.498 210.825 469.939 210.825C464.38 210.825 459.874 215.382 459.874 221.004C459.874 226.626 464.38 231.183 469.939 231.183Z" fill="#343A40"/>
<path d="M424.646 180.287H434.711V221.004H424.646V180.287Z" fill="#343A40"/>
<path d="M424.646 182.395L431.763 175.197L472.686 216.585L465.569 223.783L424.646 182.395Z" fill="#343A40"/>
<path d="M402 167.563C402 159.13 408.759 152.294 417.098 152.294H482.52C490.858 152.294 497.618 159.13 497.618 167.563V180.287H487.553V170.108C487.553 165.891 484.173 162.473 480.004 162.473H419.614C415.445 162.473 412.065 165.891 412.065 170.108V231.183C412.065 235.4 415.445 238.818 419.614 238.818H480.004C484.173 238.818 487.553 235.4 487.553 231.183V221.004H497.618V233.728C497.618 242.161 490.858 248.997 482.52 248.997H417.098C408.759 248.997 402 242.161 402 233.728V167.563Z" fill="#343A40"/>
<path d="M393.277 293.424C393.1 295.872 392.194 297.799 390.559 299.205C388.934 300.611 386.788 301.314 384.121 301.314C381.205 301.314 378.908 300.335 377.231 298.377C375.564 296.408 374.731 293.71 374.731 290.283V288.893C374.731 286.705 375.116 284.778 375.887 283.111C376.658 281.445 377.757 280.169 379.184 279.283C380.621 278.387 382.288 277.939 384.184 277.939C386.809 277.939 388.923 278.643 390.527 280.049C392.132 281.455 393.059 283.429 393.309 285.971H388.621C388.507 284.502 388.095 283.439 387.387 282.783C386.689 282.117 385.621 281.783 384.184 281.783C382.621 281.783 381.449 282.346 380.668 283.471C379.897 284.585 379.501 286.32 379.481 288.674V290.393C379.481 292.851 379.85 294.648 380.59 295.783C381.34 296.919 382.517 297.486 384.121 297.486C385.569 297.486 386.647 297.158 387.356 296.502C388.074 295.835 388.486 294.809 388.59 293.424H393.277ZM400.824 301.002H396.293V277.002H400.824V301.002ZM403.856 292.393C403.856 290.715 404.178 289.221 404.824 287.908C405.47 286.596 406.397 285.58 407.606 284.861C408.824 284.143 410.236 283.783 411.84 283.783C414.121 283.783 415.981 284.481 417.418 285.877C418.866 287.273 419.673 289.169 419.84 291.564L419.871 292.721C419.871 295.314 419.147 297.398 417.699 298.971C416.251 300.533 414.309 301.314 411.871 301.314C409.434 301.314 407.486 300.533 406.027 298.971C404.58 297.408 403.856 295.283 403.856 292.596V292.393ZM408.371 292.721C408.371 294.325 408.673 295.554 409.277 296.408C409.882 297.252 410.746 297.674 411.871 297.674C412.965 297.674 413.819 297.257 414.434 296.424C415.048 295.58 415.356 294.236 415.356 292.393C415.356 290.82 415.048 289.601 414.434 288.736C413.819 287.872 412.955 287.439 411.84 287.439C410.736 287.439 409.882 287.872 409.277 288.736C408.673 289.59 408.371 290.919 408.371 292.721ZM432.777 299.283C431.663 300.637 430.121 301.314 428.152 301.314C426.34 301.314 424.955 300.794 423.996 299.752C423.048 298.71 422.564 297.184 422.543 295.174V284.096H427.059V295.018C427.059 296.778 427.861 297.658 429.465 297.658C430.996 297.658 432.048 297.127 432.621 296.064V284.096H437.152V301.002H432.902L432.777 299.283ZM439.856 292.424C439.856 289.788 440.444 287.689 441.621 286.127C442.809 284.564 444.428 283.783 446.481 283.783C448.126 283.783 449.486 284.398 450.559 285.627V277.002H455.09V301.002H451.012L450.793 299.205C449.668 300.611 448.22 301.314 446.449 301.314C444.46 301.314 442.861 300.533 441.652 298.971C440.455 297.398 439.856 295.215 439.856 292.424ZM444.371 292.752C444.371 294.335 444.647 295.549 445.199 296.393C445.751 297.236 446.553 297.658 447.606 297.658C449.001 297.658 449.986 297.07 450.559 295.893V289.221C449.996 288.044 449.022 287.455 447.637 287.455C445.46 287.455 444.371 289.221 444.371 292.752ZM473.824 292.705C473.824 295.413 473.246 297.528 472.09 299.049C470.934 300.559 469.319 301.314 467.246 301.314C465.413 301.314 463.949 300.611 462.856 299.205L462.652 301.002H458.59V277.002H463.106V285.611C464.147 284.393 465.517 283.783 467.215 283.783C469.277 283.783 470.892 284.544 472.059 286.064C473.236 287.575 473.824 289.705 473.824 292.455V292.705ZM469.309 292.377C469.309 290.669 469.038 289.424 468.496 288.643C467.955 287.851 467.147 287.455 466.074 287.455C464.637 287.455 463.647 288.044 463.106 289.221V295.893C463.658 297.08 464.658 297.674 466.106 297.674C467.564 297.674 468.522 296.955 468.981 295.518C469.199 294.83 469.309 293.783 469.309 292.377ZM486.418 301.002C486.21 300.596 486.059 300.09 485.965 299.486C484.871 300.705 483.449 301.314 481.699 301.314C480.043 301.314 478.668 300.835 477.574 299.877C476.491 298.919 475.949 297.71 475.949 296.252C475.949 294.46 476.611 293.085 477.934 292.127C479.267 291.169 481.189 290.684 483.699 290.674H485.777V289.705C485.777 288.924 485.574 288.299 485.168 287.83C484.772 287.361 484.142 287.127 483.277 287.127C482.517 287.127 481.918 287.309 481.481 287.674C481.053 288.038 480.84 288.538 480.84 289.174H476.324C476.324 288.195 476.626 287.288 477.231 286.455C477.835 285.622 478.689 284.971 479.793 284.502C480.897 284.023 482.137 283.783 483.512 283.783C485.595 283.783 487.246 284.309 488.465 285.361C489.694 286.403 490.309 287.872 490.309 289.768V297.096C490.319 298.7 490.543 299.913 490.981 300.736V301.002H486.418ZM482.684 297.861C483.35 297.861 483.965 297.715 484.527 297.424C485.09 297.122 485.507 296.721 485.777 296.221V293.314H484.09C481.83 293.314 480.626 294.096 480.481 295.658L480.465 295.924C480.465 296.486 480.663 296.95 481.059 297.314C481.455 297.679 481.996 297.861 482.684 297.861ZM500.809 297.674C501.642 297.674 502.319 297.445 502.84 296.986C503.361 296.528 503.632 295.919 503.652 295.158H507.887C507.876 296.304 507.564 297.356 506.949 298.314C506.335 299.262 505.491 300.002 504.418 300.533C503.356 301.054 502.178 301.314 500.887 301.314C498.47 301.314 496.564 300.549 495.168 299.018C493.772 297.476 493.074 295.351 493.074 292.643V292.346C493.074 289.742 493.767 287.663 495.152 286.111C496.538 284.559 498.439 283.783 500.856 283.783C502.97 283.783 504.663 284.387 505.934 285.596C507.215 286.794 507.866 288.393 507.887 290.393H503.652C503.632 289.518 503.361 288.809 502.84 288.268C502.319 287.715 501.632 287.439 500.777 287.439C499.725 287.439 498.928 287.825 498.387 288.596C497.856 289.356 497.59 290.596 497.59 292.314V292.783C497.59 294.523 497.856 295.773 498.387 296.533C498.918 297.294 499.725 297.674 500.809 297.674ZM516.606 294.221L514.981 295.846V301.002H510.465V277.002H514.981V290.299L515.856 289.174L520.184 284.096H525.606L519.496 291.143L526.137 301.002H520.949L516.606 294.221ZM409.606 333.033C409.606 332.148 409.293 331.471 408.668 331.002C408.043 330.523 406.918 330.023 405.293 329.502C403.668 328.971 402.382 328.45 401.434 327.939C398.85 326.544 397.559 324.663 397.559 322.299C397.559 321.07 397.902 319.976 398.59 319.018C399.288 318.049 400.283 317.294 401.574 316.752C402.876 316.21 404.335 315.939 405.949 315.939C407.574 315.939 409.022 316.236 410.293 316.83C411.564 317.413 412.548 318.242 413.246 319.314C413.955 320.387 414.309 321.606 414.309 322.971H409.621C409.621 321.929 409.293 321.122 408.637 320.549C407.981 319.965 407.059 319.674 405.871 319.674C404.725 319.674 403.835 319.919 403.199 320.408C402.564 320.887 402.246 321.523 402.246 322.314C402.246 323.054 402.616 323.674 403.356 324.174C404.106 324.674 405.205 325.143 406.652 325.58C409.319 326.382 411.262 327.377 412.481 328.564C413.699 329.752 414.309 331.231 414.309 333.002C414.309 334.971 413.564 336.518 412.074 337.643C410.585 338.757 408.58 339.314 406.059 339.314C404.309 339.314 402.715 338.997 401.277 338.361C399.84 337.715 398.741 336.835 397.981 335.721C397.231 334.606 396.856 333.314 396.856 331.846H401.559C401.559 334.356 403.059 335.611 406.059 335.611C407.173 335.611 408.043 335.387 408.668 334.939C409.293 334.481 409.606 333.846 409.606 333.033ZM424.981 339.314C422.501 339.314 420.481 338.554 418.918 337.033C417.366 335.512 416.59 333.486 416.59 330.955V330.518C416.59 328.82 416.918 327.304 417.574 325.971C418.231 324.627 419.158 323.596 420.356 322.877C421.564 322.148 422.939 321.783 424.481 321.783C426.793 321.783 428.611 322.512 429.934 323.971C431.267 325.429 431.934 327.497 431.934 330.174V332.018H421.168C421.314 333.122 421.751 334.007 422.481 334.674C423.22 335.34 424.152 335.674 425.277 335.674C427.017 335.674 428.376 335.044 429.356 333.783L431.574 336.268C430.897 337.226 429.981 337.976 428.824 338.518C427.668 339.049 426.387 339.314 424.981 339.314ZM424.465 325.439C423.569 325.439 422.84 325.742 422.277 326.346C421.725 326.95 421.371 327.814 421.215 328.939H427.496V328.58C427.475 327.58 427.205 326.809 426.684 326.268C426.163 325.715 425.423 325.439 424.465 325.439ZM444.012 326.33C443.397 326.247 442.856 326.205 442.387 326.205C440.678 326.205 439.559 326.783 439.027 327.939V339.002H434.512V322.096H438.777L438.902 324.111C439.809 322.559 441.064 321.783 442.668 321.783C443.168 321.783 443.637 321.851 444.074 321.986L444.012 326.33ZM452.809 333.486L455.949 322.096H460.668L454.965 339.002H450.652L444.949 322.096H449.668L452.809 333.486ZM467.434 339.002H462.902V322.096H467.434V339.002ZM462.637 317.721C462.637 317.044 462.861 316.486 463.309 316.049C463.767 315.611 464.387 315.393 465.168 315.393C465.939 315.393 466.553 315.611 467.012 316.049C467.47 316.486 467.699 317.044 467.699 317.721C467.699 318.408 467.465 318.971 466.996 319.408C466.538 319.846 465.928 320.064 465.168 320.064C464.408 320.064 463.793 319.846 463.324 319.408C462.866 318.971 462.637 318.408 462.637 317.721ZM478.199 335.674C479.033 335.674 479.71 335.445 480.231 334.986C480.751 334.528 481.022 333.919 481.043 333.158H485.277C485.267 334.304 484.955 335.356 484.34 336.314C483.725 337.262 482.882 338.002 481.809 338.533C480.746 339.054 479.569 339.314 478.277 339.314C475.861 339.314 473.955 338.549 472.559 337.018C471.163 335.476 470.465 333.351 470.465 330.643V330.346C470.465 327.742 471.158 325.663 472.543 324.111C473.928 322.559 475.83 321.783 478.246 321.783C480.361 321.783 482.053 322.387 483.324 323.596C484.606 324.794 485.257 326.393 485.277 328.393H481.043C481.022 327.518 480.751 326.809 480.231 326.268C479.71 325.715 479.022 325.439 478.168 325.439C477.116 325.439 476.319 325.825 475.777 326.596C475.246 327.356 474.981 328.596 474.981 330.314V330.783C474.981 332.523 475.246 333.773 475.777 334.533C476.309 335.294 477.116 335.674 478.199 335.674ZM495.637 339.314C493.158 339.314 491.137 338.554 489.574 337.033C488.022 335.512 487.246 333.486 487.246 330.955V330.518C487.246 328.82 487.574 327.304 488.231 325.971C488.887 324.627 489.814 323.596 491.012 322.877C492.22 322.148 493.595 321.783 495.137 321.783C497.449 321.783 499.267 322.512 500.59 323.971C501.923 325.429 502.59 327.497 502.59 330.174V332.018H491.824C491.97 333.122 492.408 334.007 493.137 334.674C493.876 335.34 494.809 335.674 495.934 335.674C497.673 335.674 499.033 335.044 500.012 333.783L502.231 336.268C501.553 337.226 500.637 337.976 499.481 338.518C498.324 339.049 497.043 339.314 495.637 339.314ZM495.121 325.439C494.225 325.439 493.496 325.742 492.934 326.346C492.382 326.95 492.027 327.814 491.871 328.939H498.152V328.58C498.132 327.58 497.861 326.809 497.34 326.268C496.819 325.715 496.08 325.439 495.121 325.439Z" fill="#343A40"/>
<g filter="url(#filter4_d)">
<rect x="100" y="112.001" width="200" height="200" rx="20" fill="white"/>
</g>
<path d="M200.181 152.001C177.428 151.992 159 170.371 159 193.057C159 210.996 170.528 226.245 186.583 231.845C188.745 232.387 188.414 230.853 188.414 229.807V222.692C175.929 224.152 175.423 215.907 174.586 214.53C172.893 211.648 168.89 210.913 170.087 209.536C172.929 208.076 175.828 209.903 179.186 214.852C181.615 218.441 186.353 217.835 188.754 217.239C189.279 215.081 190.401 213.153 191.947 211.657C179.011 209.343 173.619 201.466 173.619 192.102C173.619 187.558 175.119 183.38 178.063 180.011C176.186 174.457 178.238 169.701 178.514 168.994C183.86 168.517 189.417 172.813 189.849 173.153C192.885 172.336 196.354 171.905 200.236 171.905C204.137 171.905 207.615 172.354 210.679 173.181C211.718 172.391 216.871 168.701 221.839 169.15C222.106 169.857 224.111 174.503 222.345 179.984C225.326 183.362 226.844 187.576 226.844 192.13C226.844 201.512 221.416 209.398 208.443 211.675C209.554 212.765 210.436 214.066 211.038 215.5C211.64 216.935 211.95 218.474 211.948 220.029V230.358C212.022 231.184 211.948 232.001 213.328 232.001C229.622 226.52 241.353 211.161 241.353 193.066C241.353 170.371 222.915 152.001 200.181 152.001Z" fill="#343A40"/>
<path d="M174.914 279.485C174.176 280.369 173.132 281.058 171.783 281.55C170.434 282.033 168.939 282.274 167.299 282.274C165.576 282.274 164.063 281.901 162.76 281.153C161.465 280.397 160.463 279.303 159.752 277.872C159.05 276.441 158.69 274.759 158.672 272.827V271.474C158.672 269.487 159.005 267.769 159.67 266.319C160.344 264.861 161.311 263.749 162.568 262.983C163.835 262.209 165.316 261.821 167.012 261.821C169.372 261.821 171.218 262.386 172.549 263.517C173.88 264.638 174.668 266.274 174.914 268.425H170.922C170.74 267.285 170.334 266.451 169.705 265.923C169.085 265.394 168.229 265.13 167.135 265.13C165.74 265.13 164.678 265.654 163.949 266.702C163.22 267.75 162.851 269.309 162.842 271.378V272.649C162.842 274.737 163.238 276.313 164.031 277.38C164.824 278.446 165.986 278.979 167.518 278.979C169.058 278.979 170.156 278.651 170.812 277.995V274.563H167.08V271.542H174.914V279.485ZM182.16 282.001H178.195V267.208H182.16V282.001ZM177.963 263.38C177.963 262.787 178.159 262.3 178.551 261.917C178.952 261.534 179.494 261.343 180.178 261.343C180.852 261.343 181.39 261.534 181.791 261.917C182.192 262.3 182.393 262.787 182.393 263.38C182.393 263.981 182.188 264.474 181.777 264.856C181.376 265.239 180.843 265.431 180.178 265.431C179.512 265.431 178.975 265.239 178.564 264.856C178.163 264.474 177.963 263.981 177.963 263.38ZM190.158 263.571V267.208H192.688V270.106H190.158V277.489C190.158 278.036 190.263 278.428 190.473 278.665C190.682 278.902 191.083 279.021 191.676 279.021C192.113 279.021 192.501 278.989 192.838 278.925V281.919C192.063 282.156 191.266 282.274 190.445 282.274C187.674 282.274 186.262 280.875 186.207 278.077V270.106H184.047V267.208H186.207V263.571H190.158ZM211.35 282.001H207.248V273.47H199.25V282.001H195.148V262.095H199.25V270.161H207.248V262.095H211.35V282.001ZM223.545 280.497C222.57 281.682 221.221 282.274 219.498 282.274C217.912 282.274 216.7 281.819 215.861 280.907C215.032 279.996 214.608 278.66 214.59 276.901V267.208H218.541V276.765C218.541 278.305 219.243 279.075 220.646 279.075C221.986 279.075 222.907 278.61 223.408 277.681V267.208H227.373V282.001H223.654L223.545 280.497ZM243.684 274.741C243.684 277.111 243.178 278.961 242.166 280.292C241.154 281.614 239.742 282.274 237.928 282.274C236.324 282.274 235.043 281.659 234.086 280.429L233.908 282.001H230.354V261.001H234.305V268.534C235.216 267.468 236.415 266.935 237.9 266.935C239.705 266.935 241.118 267.6 242.139 268.931C243.169 270.252 243.684 272.116 243.684 274.522V274.741ZM239.732 274.454C239.732 272.959 239.495 271.87 239.021 271.187C238.548 270.494 237.841 270.147 236.902 270.147C235.645 270.147 234.779 270.662 234.305 271.692V277.53C234.788 278.569 235.663 279.089 236.93 279.089C238.206 279.089 239.044 278.46 239.445 277.202C239.637 276.601 239.732 275.685 239.732 274.454Z" fill="#343A40"/>
<g filter="url(#filter5_d)">
<rect x="100" y="332.002" width="200" height="55" rx="20" fill="white"/>
</g>
<path d="M139.472 344.002C130.371 343.998 123 351.35 123 360.424C123 367.6 127.611 373.699 134.033 375.94C134.898 376.156 134.765 375.543 134.765 375.124V372.278C129.772 372.862 129.569 369.564 129.234 369.014C128.557 367.861 126.956 367.567 127.435 367.016C128.572 366.432 129.731 367.163 131.074 369.142C132.046 370.578 133.941 370.336 134.902 370.097C135.111 369.234 135.56 368.463 136.179 367.864C131.004 366.939 128.848 363.788 128.848 360.042C128.848 358.225 129.448 356.554 130.625 355.206C129.875 352.984 130.695 351.082 130.806 350.799C132.944 350.608 135.167 352.327 135.34 352.463C136.554 352.136 137.941 351.963 139.495 351.963C141.055 351.963 142.446 352.143 143.671 352.474C144.087 352.158 146.148 350.682 148.136 350.862C148.242 351.144 149.045 353.003 148.338 355.195C149.53 356.546 150.138 358.232 150.138 360.053C150.138 363.806 147.966 366.961 142.777 367.872C143.222 368.308 143.575 368.828 143.815 369.402C144.056 369.975 144.18 370.591 144.179 371.213V375.345C144.209 375.675 144.179 376.002 144.731 376.002C151.249 373.81 155.941 367.666 155.941 360.428C155.941 351.35 148.566 344.002 139.472 344.002Z" fill="#343A40"/>
<path d="M181.996 364.385C181.521 364.953 180.851 365.396 179.983 365.712C179.116 366.022 178.155 366.178 177.101 366.178C175.993 366.178 175.021 365.938 174.183 365.457C173.351 364.971 172.706 364.268 172.249 363.348C171.798 362.428 171.566 361.347 171.555 360.104V359.234C171.555 357.957 171.769 356.853 172.196 355.921C172.63 354.983 173.251 354.269 174.06 353.776C174.874 353.278 175.826 353.029 176.916 353.029C178.434 353.029 179.62 353.393 180.476 354.119C181.331 354.84 181.838 355.892 181.996 357.274H179.43C179.312 356.542 179.052 356.006 178.647 355.666C178.249 355.326 177.698 355.156 176.995 355.156C176.099 355.156 175.416 355.493 174.947 356.167C174.479 356.841 174.241 357.843 174.235 359.173V359.99C174.235 361.332 174.49 362.346 175 363.031C175.51 363.717 176.257 364.06 177.241 364.06C178.231 364.06 178.938 363.849 179.359 363.427V361.221H176.96V359.278H181.996V364.385ZM186.654 366.002H184.105V356.492H186.654V366.002ZM183.956 354.031C183.956 353.65 184.082 353.337 184.334 353.091C184.592 352.845 184.94 352.722 185.38 352.722C185.813 352.722 186.159 352.845 186.417 353.091C186.675 353.337 186.804 353.65 186.804 354.031C186.804 354.418 186.672 354.734 186.408 354.98C186.15 355.227 185.808 355.35 185.38 355.35C184.952 355.35 184.606 355.227 184.343 354.98C184.085 354.734 183.956 354.418 183.956 354.031ZM191.796 354.154V356.492H193.422V358.355H191.796V363.102C191.796 363.453 191.863 363.705 191.998 363.857C192.133 364.01 192.391 364.086 192.771 364.086C193.053 364.086 193.302 364.065 193.519 364.024V365.949C193.021 366.102 192.508 366.178 191.98 366.178C190.199 366.178 189.291 365.278 189.256 363.479V358.355H187.867V356.492H189.256V354.154H191.796ZM205.419 366.002H202.782V360.518H197.641V366.002H195.004V353.205H197.641V358.391H202.782V353.205H205.419V366.002ZM213.259 365.035C212.632 365.797 211.765 366.178 210.657 366.178C209.638 366.178 208.858 365.885 208.319 365.299C207.786 364.713 207.514 363.854 207.502 362.724V356.492H210.042V362.636C210.042 363.626 210.493 364.121 211.396 364.121C212.257 364.121 212.849 363.822 213.171 363.225V356.492H215.72V366.002H213.329L213.259 365.035ZM226.205 361.335C226.205 362.858 225.88 364.048 225.229 364.903C224.579 365.753 223.671 366.178 222.505 366.178C221.474 366.178 220.65 365.782 220.035 364.991L219.921 366.002H217.636V352.502H220.176V357.345C220.762 356.659 221.532 356.316 222.487 356.316C223.647 356.316 224.556 356.744 225.212 357.6C225.874 358.449 226.205 359.647 226.205 361.194V361.335ZM223.665 361.15C223.665 360.189 223.513 359.489 223.208 359.05C222.903 358.604 222.449 358.382 221.846 358.382C221.037 358.382 220.48 358.713 220.176 359.375V363.128C220.486 363.796 221.049 364.13 221.863 364.13C222.684 364.13 223.223 363.726 223.48 362.917C223.604 362.53 223.665 361.941 223.665 361.15ZM239.652 363.365H235.029L234.15 366.002H231.347L236.11 353.205H238.554L243.344 366.002H240.54L239.652 363.365ZM235.741 361.229H238.94L237.332 356.439L235.741 361.229ZM247.176 361.493V366.002H244.539V353.205H249.531C250.492 353.205 251.336 353.381 252.062 353.732C252.795 354.084 253.357 354.585 253.75 355.235C254.143 355.88 254.339 356.615 254.339 357.441C254.339 358.695 253.908 359.686 253.047 360.412C252.191 361.133 251.005 361.493 249.487 361.493H247.176ZM247.176 359.357H249.531C250.229 359.357 250.759 359.193 251.122 358.865C251.491 358.537 251.676 358.068 251.676 357.459C251.676 356.832 251.491 356.325 251.122 355.938C250.753 355.552 250.243 355.353 249.593 355.341H247.176V359.357ZM258.962 366.002H256.325V353.205H258.962V366.002Z" fill="#343A40"/>
<path d="M696.25 239.086C696.25 236.602 696.742 234.367 697.727 232.383C698.711 230.383 700.094 228.852 701.875 227.789C703.656 226.711 705.703 226.172 708.016 226.172C711.438 226.172 714.211 227.273 716.336 229.477C718.477 231.68 719.633 234.602 719.805 238.242L719.828 239.578C719.828 242.078 719.344 244.312 718.375 246.281C717.422 248.25 716.047 249.773 714.25 250.852C712.469 251.93 710.406 252.469 708.062 252.469C704.484 252.469 701.617 251.281 699.461 248.906C697.32 246.516 696.25 243.336 696.25 239.367V239.086ZM701.945 239.578C701.945 242.188 702.484 244.234 703.562 245.719C704.641 247.188 706.141 247.922 708.062 247.922C709.984 247.922 711.477 247.172 712.539 245.672C713.617 244.172 714.156 241.977 714.156 239.086C714.156 236.523 713.602 234.492 712.492 232.992C711.398 231.492 709.906 230.742 708.016 230.742C706.156 230.742 704.68 231.484 703.586 232.969C702.492 234.438 701.945 236.641 701.945 239.578ZM737.922 231.844C737.172 231.719 736.398 231.656 735.602 231.656C732.992 231.656 731.234 232.656 730.328 234.656V252H724.633V226.641H730.07L730.211 229.477C731.586 227.273 733.492 226.172 735.93 226.172C736.742 226.172 737.414 226.281 737.945 226.5L737.922 231.844Z" fill="#343A40"/>
<defs>
<filter id="filter0_bi" x="-30" y="-30" width="968" height="540" filterUnits="userSpaceOnUse" color-interpolation-filters="sRGB">
<feFlood flood-opacity="0" result="BackgroundImageFix"/>
<feGaussianBlur in="BackgroundImage" stdDeviation="15"/>
<feComposite in2="SourceAlpha" operator="in" result="effect1_backgroundBlur"/>
<feBlend mode="normal" in="SourceGraphic" in2="effect1_backgroundBlur" result="shape"/>
<feColorMatrix in="SourceAlpha" type="matrix" values="0 0 0 0 0 0 0 0 0 0 0 0 0 0 0 0 0 0 127 0" result="hardAlpha"/>
<feOffset/>
<feGaussianBlur stdDeviation="10"/>
<feComposite in2="hardAlpha" operator="arithmetic" k2="-1" k3="1"/>
<feColorMatrix type="matrix" values="0 0 0 0 1 0 0 0 0 1 0 0 0 0 1 0 0 0 1 0"/>
<feBlend mode="normal" in2="shape" result="effect2_innerShadow"/>
</filter>
<filter id="filter1_d" x="598" y="249.001" width="240" height="240" filterUnits="userSpaceOnUse" color-interpolation-filters="sRGB">
<feFlood flood-opacity="0" result="BackgroundImageFix"/>
<feColorMatrix in="SourceAlpha" type="matrix" values="0 0 0 0 0 0 0 0 0 0 0 0 0 0 0 0 0 0 127 0"/>
<feMorphology radius="20" operator="erode" in="SourceAlpha" result="effect1_dropShadow"/>
<feOffset dy="15"/>
<feGaussianBlur stdDeviation="25"/>
<feColorMatrix type="matrix" values="0 0 0 0 0.482353 0 0 0 0 0.576471 0 0 0 0 0.67451 0 0 0 0.42 0"/>
<feBlend mode="normal" in2="BackgroundImageFix" result="effect1_dropShadow"/>
<feBlend mode="normal" in="SourceGraphic" in2="effect1_dropShadow" result="shape"/>
</filter>
<filter id="filter2_d" x="598" y="21.001" width="240" height="240" filterUnits="userSpaceOnUse" color-interpolation-filters="sRGB">
<feFlood flood-opacity="0" result="BackgroundImageFix"/>
<feColorMatrix in="SourceAlpha" type="matrix" values="0 0 0 0 0 0 0 0 0 0 0 0 0 0 0 0 0 0 127 0"/>
<feMorphology radius="20" operator="erode" in="SourceAlpha" result="effect1_dropShadow"/>
<feOffset dy="15"/>
<feGaussianBlur stdDeviation="25"/>
<feColorMatrix type="matrix" values="0 0 0 0 0.482353 0 0 0 0 0.576471 0 0 0 0 0.67451 0 0 0 0.42 0"/>
<feBlend mode="normal" in2="BackgroundImageFix" result="effect1_dropShadow"/>
<feBlend mode="normal" in="SourceGraphic" in2="effect1_dropShadow" result="shape"/>
</filter>
<filter id="filter3_d" x="302" y="97.002" width="296.056" height="335" filterUnits="userSpaceOnUse" color-interpolation-filters="sRGB">
<feFlood flood-opacity="0" result="BackgroundImageFix"/>
<feColorMatrix in="SourceAlpha" type="matrix" values="0 0 0 0 0 0 0 0 0 0 0 0 0 0 0 0 0 0 127 0"/>
<feMorphology radius="20" operator="erode" in="SourceAlpha" result="effect1_dropShadow"/>
<feOffset dy="15"/>
<feGaussianBlur stdDeviation="25"/>
<feColorMatrix type="matrix" values="0 0 0 0 0.482353 0 0 0 0 0.576471 0 0 0 0 0.67451 0 0 0 0.42 0"/>
<feBlend mode="normal" in2="BackgroundImageFix" result="effect1_dropShadow"/>
<feBlend mode="normal" in="SourceGraphic" in2="effect1_dropShadow" result="shape"/>
</filter>
<filter id="filter4_d" x="70" y="97.001" width="260" height="260" filterUnits="userSpaceOnUse" color-interpolation-filters="sRGB">
<feFlood flood-opacity="0" result="BackgroundImageFix"/>
<feColorMatrix in="SourceAlpha" type="matrix" values="0 0 0 0 0 0 0 0 0 0 0 0 0 0 0 0 0 0 127 0"/>
<feMorphology radius="20" operator="erode" in="SourceAlpha" result="effect1_dropShadow"/>
<feOffset dy="15"/>
<feGaussianBlur stdDeviation="25"/>
<feColorMatrix type="matrix" values="0 0 0 0 0.482353 0 0 0 0 0.576471 0 0 0 0 0.67451 0 0 0 0.42 0"/>
<feBlend mode="normal" in2="BackgroundImageFix" result="effect1_dropShadow"/>
<feBlend mode="normal" in="SourceGraphic" in2="effect1_dropShadow" result="shape"/>
</filter>
<filter id="filter5_d" x="75" y="317.002" width="250" height="105" filterUnits="userSpaceOnUse" color-interpolation-filters="sRGB">
<feFlood flood-opacity="0" result="BackgroundImageFix"/>
<feColorMatrix in="SourceAlpha" type="matrix" values="0 0 0 0 0 0 0 0 0 0 0 0 0 0 0 0 0 0 127 0"/>
<feMorphology radius="5" operator="erode" in="SourceAlpha" result="effect1_dropShadow"/>
<feOffset dy="10"/>
<feGaussianBlur stdDeviation="15"/>
<feColorMatrix type="matrix" values="0 0 0 0 0.482353 0 0 0 0 0.576471 0 0 0 0 0.67451 0 0 0 0.42 0"/>
<feBlend mode="normal" in2="BackgroundImageFix" result="effect1_dropShadow"/>
<feBlend mode="normal" in="SourceGraphic" in2="effect1_dropShadow" result="shape"/>
</filter>
<clipPath id="clip0">
<rect width="56" height="56" fill="white" transform="translate(690 300.001)"/>
</clipPath>
<clipPath id="clip1">
<rect width="56" height="56" fill="white" transform="translate(690 70.001)"/>
</clipPath>
</defs>
</svg>
