<svg width="24" height="24" viewBox="0 0 24 24" fill="none" xmlns="http://www.w3.org/2000/svg">
<path d="M20 7.53125C19.4167 7.79167 18.7865 7.96875 18.1094 8.0625C18.8177 7.64583 19.3021 7.03646 19.5625 6.23438C18.8854 6.63021 18.1875 6.89583 17.4688 7.03125C16.8333 6.34375 16.0365 6 15.0781 6C14.1719 6 13.3984 6.32031 12.7578 6.96094C12.1172 7.60156 11.7969 8.375 11.7969 9.28125C11.7969 9.58333 11.8229 9.83333 11.875 10.0312C10.5312 9.95833 9.27083 9.61979 8.09375 9.01562C6.91667 8.41146 5.91667 7.60417 5.09375 6.59375C4.79167 7.11458 4.64062 7.66667 4.64062 8.25C4.64062 9.4375 5.11458 10.349 6.0625 10.9844C5.57292 10.974 5.05208 10.8385 4.5 10.5781V10.6094C4.5 11.3906 4.76042 12.0859 5.28125 12.6953C5.80208 13.3047 6.44271 13.6823 7.20312 13.8281C6.90104 13.9115 6.63542 13.9531 6.40625 13.9531C6.27083 13.9531 6.06771 13.9323 5.79688 13.8906C6.01562 14.5469 6.40365 15.0885 6.96094 15.5156C7.51823 15.9427 8.15104 16.1615 8.85938 16.1719C7.65104 17.1094 6.29167 17.5781 4.78125 17.5781C4.51042 17.5781 4.25 17.5625 4 17.5312C5.54167 18.5104 7.21875 19 9.03125 19C10.1979 19 11.2917 18.8151 12.3125 18.4453C13.3333 18.0755 14.2083 17.5807 14.9375 16.9609C15.6667 16.3411 16.2943 15.6276 16.8203 14.8203C17.3464 14.013 17.737 13.1693 17.9922 12.2891C18.2474 11.4089 18.375 10.5312 18.375 9.65625C18.375 9.46875 18.3698 9.32812 18.3594 9.23438C19.0156 8.76562 19.5625 8.19792 20 7.53125ZM24 4.5V19.5C24 20.7396 23.5599 21.7995 22.6797 22.6797C21.7995 23.5599 20.7396 24 19.5 24H4.5C3.26042 24 2.20052 23.5599 1.32031 22.6797C0.440104 21.7995 0 20.7396 0 19.5V4.5C0 3.26042 0.440104 2.20052 1.32031 1.32031C2.20052 0.440104 3.26042 0 4.5 0H19.5C20.7396 0 21.7995 0.440104 22.6797 1.32031C23.5599 2.20052 24 3.26042 24 4.5Z" fill="#7B93AC"/>
</svg>
