<svg class="h24 w24" width="64" height="64" viewBox="0 0 64 64" xmlns="http://www.w3.org/2000/svg" fill="#7B93AC">
<path d="M18.5263 25.2632C22.247 25.2632 25.2632 22.247 25.2632 18.5263C25.2632 14.8057 22.247 11.7895 18.5263 11.7895C14.8057 11.7895 11.7895 14.8057 11.7895 18.5263C11.7895 22.247 14.8057 25.2632 18.5263 25.2632Z"/>
<path d="M18.5263 52.2105C22.247 52.2105 25.2632 49.1943 25.2632 45.4737C25.2632 41.753 22.247 38.7368 18.5263 38.7368C14.8057 38.7368 11.7895 41.753 11.7895 45.4737C11.7895 49.1943 14.8057 52.2105 18.5263 52.2105Z"/>
<path d="M45.4737 52.2105C49.1943 52.2105 52.2105 49.1943 52.2105 45.4737C52.2105 41.753 49.1943 38.7368 45.4737 38.7368C41.753 38.7368 38.7368 41.753 38.7368 45.4737C38.7368 49.1943 41.753 52.2105 45.4737 52.2105Z"/>
<path d="M15.1579 18.5263H21.8947V45.4737H15.1579V18.5263Z"/>
<path d="M15.1579 19.9215L19.9216 15.1578L47.3126 42.5489L42.549 47.3125L15.1579 19.9215Z"/>
<path d="M0 10.1053C0 4.52428 4.52428 0 10.1053 0H53.8947C59.4757 0 64 4.52428 64 10.1053V18.5263H57.2632V11.7895C57.2632 8.99898 55.001 6.73684 52.2105 6.73684H11.7895C8.99898 6.73684 6.73684 8.99898 6.73684 11.7895V52.2105C6.73684 55.001 8.99898 57.2632 11.7895 57.2632H52.2105C55.001 57.2632 57.2632 55.001 57.2632 52.2105V45.4737H64V53.8947C64 59.4757 59.4757 64 53.8947 64H10.1053C4.52428 64 0 59.4757 0 53.8947V10.1053Z"/>
</svg>