<svg width="24" height="24" viewBox="0 0 24 24" fill="none" xmlns="http://www.w3.org/2000/svg">
<path d="M16 12C16 10.8958 15.6094 9.95312 14.8281 9.17188C14.0469 8.39062 13.1042 8 12 8C10.8958 8 9.95312 8.39062 9.17188 9.17188C8.39062 9.95312 8 10.8958 8 12C8 13.1042 8.39062 14.0469 9.17188 14.8281C9.95312 15.6094 10.8958 16 12 16C13.1042 16 14.0469 15.6094 14.8281 14.8281C15.6094 14.0469 16 13.1042 16 12ZM18.1562 12C18.1562 13.7083 17.5573 15.1615 16.3594 16.3594C15.1615 17.5573 13.7083 18.1562 12 18.1562C10.2917 18.1562 8.83854 17.5573 7.64062 16.3594C6.44271 15.1615 5.84375 13.7083 5.84375 12C5.84375 10.2917 6.44271 8.83854 7.64062 7.64062C8.83854 6.44271 10.2917 5.84375 12 5.84375C13.7083 5.84375 15.1615 6.44271 16.3594 7.64062C17.5573 8.83854 18.1562 10.2917 18.1562 12ZM19.8438 5.59375C19.8438 5.98958 19.7031 6.32812 19.4219 6.60938C19.1406 6.89062 18.8021 7.03125 18.4062 7.03125C18.0104 7.03125 17.6719 6.89062 17.3906 6.60938C17.1094 6.32812 16.9688 5.98958 16.9688 5.59375C16.9688 5.19792 17.1094 4.85938 17.3906 4.57812C17.6719 4.29688 18.0104 4.15625 18.4062 4.15625C18.8021 4.15625 19.1406 4.29688 19.4219 4.57812C19.7031 4.85938 19.8438 5.19792 19.8438 5.59375ZM12 2.15625C11.9271 2.15625 11.5286 2.15365 10.8047 2.14844C10.0807 2.14323 9.53125 2.14323 9.15625 2.14844C8.78125 2.15365 8.27865 2.16927 7.64844 2.19531C7.01823 2.22135 6.48177 2.27344 6.03906 2.35156C5.59635 2.42969 5.22396 2.52604 4.92188 2.64062C4.40104 2.84896 3.94271 3.15104 3.54688 3.54688C3.15104 3.94271 2.84896 4.40104 2.64062 4.92188C2.52604 5.22396 2.42969 5.59635 2.35156 6.03906C2.27344 6.48177 2.22135 7.01823 2.19531 7.64844C2.16927 8.27865 2.15365 8.78125 2.14844 9.15625C2.14323 9.53125 2.14323 10.0807 2.14844 10.8047C2.15365 11.5286 2.15625 11.9271 2.15625 12C2.15625 12.0729 2.15365 12.4714 2.14844 13.1953C2.14323 13.9193 2.14323 14.4688 2.14844 14.8438C2.15365 15.2188 2.16927 15.7214 2.19531 16.3516C2.22135 16.9818 2.27344 17.5182 2.35156 17.9609C2.42969 18.4036 2.52604 18.776 2.64062 19.0781C2.84896 19.599 3.15104 20.0573 3.54688 20.4531C3.94271 20.849 4.40104 21.151 4.92188 21.3594C5.22396 21.474 5.59635 21.5703 6.03906 21.6484C6.48177 21.7266 7.01823 21.7786 7.64844 21.8047C8.27865 21.8307 8.78125 21.8464 9.15625 21.8516C9.53125 21.8568 10.0807 21.8568 10.8047 21.8516C11.5286 21.8464 11.9271 21.8438 12 21.8438C12.0729 21.8438 12.4714 21.8464 13.1953 21.8516C13.9193 21.8568 14.4688 21.8568 14.8438 21.8516C15.2188 21.8464 15.7214 21.8307 16.3516 21.8047C16.9818 21.7786 17.5182 21.7266 17.9609 21.6484C18.4036 21.5703 18.776 21.474 19.0781 21.3594C19.599 21.151 20.0573 20.849 20.4531 20.4531C20.849 20.0573 21.151 19.599 21.3594 19.0781C21.474 18.776 21.5703 18.4036 21.6484 17.9609C21.7266 17.5182 21.7786 16.9818 21.8047 16.3516C21.8307 15.7214 21.8464 15.2188 21.8516 14.8438C21.8568 14.4688 21.8568 13.9193 21.8516 13.1953C21.8464 12.4714 21.8438 12.0729 21.8438 12C21.8438 11.9271 21.8464 11.5286 21.8516 10.8047C21.8568 10.0807 21.8568 9.53125 21.8516 9.15625C21.8464 8.78125 21.8307 8.27865 21.8047 7.64844C21.7786 7.01823 21.7266 6.48177 21.6484 6.03906C21.5703 5.59635 21.474 5.22396 21.3594 4.92188C21.151 4.40104 20.849 3.94271 20.4531 3.54688C20.0573 3.15104 19.599 2.84896 19.0781 2.64062C18.776 2.52604 18.4036 2.42969 17.9609 2.35156C17.5182 2.27344 16.9818 2.22135 16.3516 2.19531C15.7214 2.16927 15.2188 2.15365 14.8438 2.14844C14.4688 2.14323 13.9193 2.14323 13.1953 2.14844C12.4714 2.15365 12.0729 2.15625 12 2.15625ZM24 12C24 14.3854 23.974 16.0365 23.9219 16.9531C23.8177 19.1198 23.1719 20.7969 21.9844 21.9844C20.7969 23.1719 19.1198 23.8177 16.9531 23.9219C16.0365 23.974 14.3854 24 12 24C9.61458 24 7.96354 23.974 7.04688 23.9219C4.88021 23.8177 3.20312 23.1719 2.01562 21.9844C0.828125 20.7969 0.182292 19.1198 0.078125 16.9531C0.0260417 16.0365 0 14.3854 0 12C0 9.61458 0.0260417 7.96354 0.078125 7.04688C0.182292 4.88021 0.828125 3.20312 2.01562 2.01562C3.20312 0.828125 4.88021 0.182292 7.04688 0.078125C7.96354 0.0260417 9.61458 0 12 0C14.3854 0 16.0365 0.0260417 16.9531 0.078125C19.1198 0.182292 20.7969 0.828125 21.9844 2.01562C23.1719 3.20312 23.8177 4.88021 23.9219 7.04688C23.974 7.96354 24 9.61458 24 12Z" fill="#7B93AC"/>
</svg>
