<svg width="24" height="24" viewBox="0 0 24 24" fill="none" xmlns="http://www.w3.org/2000/svg">
<path d="M3.70312 20.0938H7.3125V9.25H3.70312V20.0938ZM7.54688 5.90625C7.53646 5.36458 7.34896 4.91667 6.98438 4.5625C6.61979 4.20833 6.13542 4.03125 5.53125 4.03125C4.92708 4.03125 4.4349 4.20833 4.05469 4.5625C3.67448 4.91667 3.48438 5.36458 3.48438 5.90625C3.48438 6.4375 3.66927 6.88281 4.03906 7.24219C4.40885 7.60156 4.89062 7.78125 5.48438 7.78125H5.5C6.11458 7.78125 6.60938 7.60156 6.98438 7.24219C7.35938 6.88281 7.54688 6.4375 7.54688 5.90625ZM16.6875 20.0938H20.2969V13.875C20.2969 12.2708 19.9167 11.0573 19.1562 10.2344C18.3958 9.41146 17.3906 9 16.1406 9C14.724 9 13.6354 9.60938 12.875 10.8281H12.9062V9.25H9.29688C9.32812 9.9375 9.32812 13.5521 9.29688 20.0938H12.9062V14.0312C12.9062 13.6354 12.9427 13.3438 13.0156 13.1562C13.1719 12.7917 13.4062 12.4818 13.7188 12.2266C14.0312 11.9714 14.4167 11.8438 14.875 11.8438C16.0833 11.8438 16.6875 12.6615 16.6875 14.2969V20.0938ZM24 4.5V19.5C24 20.7396 23.5599 21.7995 22.6797 22.6797C21.7995 23.5599 20.7396 24 19.5 24H4.5C3.26042 24 2.20052 23.5599 1.32031 22.6797C0.440104 21.7995 0 20.7396 0 19.5V4.5C0 3.26042 0.440104 2.20052 1.32031 1.32031C2.20052 0.440104 3.26042 0 4.5 0H19.5C20.7396 0 21.7995 0.440104 22.6797 1.32031C23.5599 2.20052 24 3.26042 24 4.5Z" fill="#7B93AC"/>
</svg>
